<?xml version="1.0" encoding="UTF-8" standalone="no"?>
<!-- Created with Inkscape (http://www.inkscape.org/) -->

<svg
   width="23.291157mm"
   height="5.9252238mm"
   viewBox="0 0 23.291157 5.9252238"
   version="1.1"
   id="svg1"
   xml:space="preserve"
   xmlns="http://www.w3.org/2000/svg"
   xmlns:svg="http://www.w3.org/2000/svg"><defs
     id="defs1" /><g
     id="layer1"
     transform="translate(-58.735837,-41.367557)"><path
       style="font-size:6.35px;line-height:0px;font-family:Inter;-inkscape-font-specification:'Inter, @opsz=25,wght=708';font-variation-settings:'opsz' 25, 'wght' 708;letter-spacing:-0.185208px;word-spacing:0px;fill:#ffffff;stroke-width:0.264583"
       d="m 58.735837,45.987431 v -4.619873 h 1.820044 q 0.523999,0 0.89917,0.192236 0.378271,0.189136 0.579809,0.536401 0.201538,0.344165 0.201538,0.806153 0,0.465087 -0.204638,0.809253 -0.204639,0.344165 -0.586011,0.536401 -0.378272,0.189136 -0.905371,0.189136 h -1.230933 v -0.796851 h 1.141016 q 0.26355,0 0.446484,-0.08992 0.182935,-0.09302 0.279053,-0.257349 0.09612,-0.167431 0.09612,-0.390673 0,-0.223243 -0.09612,-0.387574 -0.09612,-0.164331 -0.279053,-0.254248 -0.182934,-0.08992 -0.449585,-0.08992 h -0.747241 v 3.816822 z m 4.720621,0.05891 q -0.328662,0 -0.586011,-0.111621 -0.257348,-0.111621 -0.406177,-0.331763 -0.145727,-0.223242 -0.145727,-0.555005 0,-0.285254 0.102319,-0.471289 0.10542,-0.189136 0.285254,-0.303857 0.179834,-0.117823 0.412378,-0.176734 0.232544,-0.05891 0.489893,-0.08372 0.297656,-0.03101 0.47749,-0.05581 0.179834,-0.0279 0.260449,-0.08372 0.08061,-0.05581 0.08061,-0.16123 v -0.0186 q 0,-0.130225 -0.06511,-0.223242 -0.06201,-0.09612 -0.179834,-0.148828 -0.117822,-0.05271 -0.288354,-0.05271 -0.170533,0 -0.300757,0.05271 -0.127124,0.05271 -0.204639,0.145727 -0.07751,0.09302 -0.09922,0.213941 l -0.868164,-0.05581 q 0.04961,-0.325561 0.238745,-0.558105 0.189136,-0.232544 0.505396,-0.359668 0.31936,-0.127124 0.747241,-0.127124 0.31626,0 0.57981,0.07441 0.26665,0.07131 0.458886,0.217041 0.192237,0.142627 0.297657,0.356567 0.10542,0.213941 0.10542,0.496094 v 2.263428 h -0.902271 v -0.468189 h -0.0186 q -0.08682,0.161231 -0.220142,0.279053 -0.130225,0.117822 -0.31936,0.182934 -0.186036,0.06511 -0.437183,0.06511 z m 0.260449,-0.644922 q 0.217041,0 0.378272,-0.08062 0.16123,-0.08372 0.248047,-0.226343 0.08992,-0.142627 0.08992,-0.319361 V 44.43093 q -0.04031,0.02481 -0.111622,0.04651 -0.07131,0.0217 -0.164331,0.04031 -0.08992,0.0186 -0.189135,0.03411 -0.09922,0.0155 -0.198438,0.03101 -0.16123,0.0217 -0.288354,0.07441 -0.124024,0.05271 -0.198438,0.142627 -0.07131,0.08682 -0.07131,0.220142 0,0.120923 0.06201,0.207739 0.06511,0.08372 0.176734,0.130225 0.114721,0.04341 0.26665,0.04341 z m 2.149533,1.882055 v -4.644677 h 0.917774 v 0.496094 h 0.0248 q 0.08372,-0.15813 0.217042,-0.282154 0.136425,-0.127124 0.325561,-0.198437 0.189136,-0.07441 0.430981,-0.07441 0.406177,0 0.722437,0.21084 0.31936,0.207739 0.502295,0.595312 0.182934,0.387573 0.182934,0.927075 0,0.539502 -0.179834,0.930176 -0.179834,0.387573 -0.499194,0.598413 -0.31626,0.21084 -0.734839,0.21084 -0.238745,0 -0.42478,-0.07441 -0.186035,-0.07752 -0.322461,-0.207739 -0.133325,-0.130225 -0.21394,-0.297657 h -0.0186 v 1.810742 z M 67.515952,45.2991 q 0.229443,0 0.390674,-0.120923 0.16123,-0.120923 0.248047,-0.341065 0.08992,-0.223242 0.08992,-0.523999 0,-0.303857 -0.08682,-0.523999 -0.08682,-0.220141 -0.251147,-0.337964 -0.161231,-0.120923 -0.390674,-0.120923 -0.232544,0 -0.403076,0.120923 -0.167432,0.120923 -0.260449,0.341065 -0.08992,0.220141 -0.08992,0.520898 0,0.297656 0.08992,0.520899 0.09302,0.220141 0.26355,0.344165 0.170532,0.120923 0.399975,0.120923 z m 3.572702,0.759643 q -0.508496,0 -0.886767,-0.217041 -0.375171,-0.220142 -0.57981,-0.610815 -0.204638,-0.393775 -0.204638,-0.908472 0,-0.514697 0.204638,-0.908472 0.20774,-0.393774 0.576709,-0.613916 0.36897,-0.223242 0.852661,-0.223242 0.356568,0 0.651123,0.117822 0.294556,0.117823 0.511597,0.341065 0.220142,0.223242 0.337964,0.542602 0.120923,0.31626 0.120923,0.719336 v 0.254248 h -2.905249 v -0.589111 h 2.455664 l -0.427881,0.145728 q 0,-0.254249 -0.08682,-0.440284 -0.08682,-0.186035 -0.248047,-0.285254 -0.161231,-0.102319 -0.393775,-0.102319 -0.229443,0 -0.393774,0.102319 -0.164331,0.09922 -0.254248,0.282154 -0.08682,0.182934 -0.08682,0.427881 v 0.406176 q 0,0.269751 0.09302,0.465088 0.09302,0.192237 0.269751,0.294556 0.176733,0.102319 0.418579,0.102319 0.170532,0 0.303858,-0.04961 0.136425,-0.04961 0.229443,-0.139527 0.09612,-0.09302 0.139526,-0.220141 l 0.84646,0.06201 q -0.06821,0.310058 -0.282153,0.545703 -0.21394,0.235644 -0.539502,0.368969 -0.322461,0.130225 -0.722437,0.130225 z m 1.941795,-0.07131 V 42.6388 h 0.899169 v 0.576709 h 0.0217 q 0.08992,-0.306958 0.294555,-0.455786 0.204639,-0.151929 0.514697,-0.151929 0.08062,0 0.151929,0.0062 0.07441,0.0031 0.133325,0.0093 v 0.809253 q -0.05581,-0.0124 -0.173632,-0.0217 -0.114722,-0.0093 -0.226343,-0.0093 -0.195337,0 -0.353467,0.08992 -0.155029,0.08682 -0.244946,0.254248 -0.08682,0.164331 -0.08682,0.396875 v 1.844849 z m 3.162975,-0.964283 v -1.106909 h 0.114722 L 77.43986,42.6388 h 1.085205 l -1.485181,1.686719 h -0.220141 z m -0.843359,0.964283 V 41.36756 h 0.930176 v 4.619873 z m 2.148706,0 -1.026294,-1.457276 0.617017,-0.654223 1.500683,2.111499 z m 1.331512,1.268139 0.08372,-0.722436 0.300757,0.0124 q 0.139526,0.0186 0.238745,-0.0124 0.09922,-0.02791 0.161231,-0.111621 0.06511,-0.08062 0.09612,-0.223243 l 0.06201,-0.21394 -1.27434,-3.345532 h 0.982885 l 0.555005,1.680517 q 0.09922,0.306958 0.176734,0.620118 0.08062,0.310058 0.164331,0.632519 h -0.244947 q 0.08062,-0.322461 0.164331,-0.63562 0.08682,-0.313159 0.189136,-0.617017 L 81.053408,42.6388 h 0.973584 l -1.451074,3.81372 q -0.10542,0.275953 -0.257348,0.461988 -0.151929,0.189135 -0.36897,0.282153 -0.213941,0.09612 -0.505396,0.09612 -0.164331,0 -0.325561,-0.0124 -0.15813,-0.0093 -0.288355,-0.02481 z"
       id="text1"
       aria-label="Paperky" /></g></svg>
